<svg width="45" height="45" viewBox="0 0 45 45" fill="none" xmlns="http://www.w3.org/2000/svg">
<path d="M0.606087 6.41418C3.60436 23.9574 18.9398 37.2576 37.3184 37.1394C39.5303 37.1252 41.6957 36.9172 43.7985 36.5316C40.3779 37.8078 36.6792 38.5161 32.8162 38.5409C15.141 38.6546 0.720203 24.4181 0.606545 6.74283C0.60584 6.63315 0.605688 6.52361 0.606087 6.41418Z" fill="#FF6E30"/>
<path d="M10.3692 13.4724C12.7562 27.0027 24.6497 37.2064 38.8367 37.0389C40.5438 37.0188 42.2142 36.8493 43.8356 36.543C41.2006 37.5422 38.3486 38.1041 35.3669 38.1393C21.7231 38.3004 10.532 27.3704 10.3709 13.7266C10.3699 13.6417 10.3693 13.557 10.3692 13.4724Z" fill="#3038FF"/>
<path d="M22.7415 24.0487C24.686 32.0502 32.1896 37.6987 40.6686 37.0561C41.6888 36.9788 42.6814 36.8135 43.6394 36.5684C42.1016 37.2668 40.4173 37.7119 38.6353 37.847C30.4813 38.465 23.3703 32.3558 22.7523 24.2019C22.7484 24.1508 22.7448 24.0997 22.7415 24.0487Z" fill="white"/>
</svg>
